<svg width="346" height="88" viewBox="0 0 346 88" fill="none" xmlns="http://www.w3.org/2000/svg">
<line x1="125" y1="27.1807" x2="140.883" y2="27.1807" stroke="#2E8EF5" stroke-width="0.992669"/>
<line x1="159.743" y1="27.1807" x2="175.626" y2="27.1807" stroke="#2E8EF5" stroke-width="0.992669"/>
<line x1="149.684" y1="32.724" x2="148.3" y2="48.5463" stroke="#2E8EF5" stroke-width="0.992669"/>
<line x1="135.564" y1="13.4243" x2="143.987" y2="21.8473" stroke="#2E8EF5" stroke-width="0.744502"/>
<line x1="154.516" y1="22.3738" x2="162.939" y2="13.9507" stroke="#2E8EF5" stroke-width="0.744502"/>
<line x1="155.042" y1="32.9026" x2="163.465" y2="41.3257" stroke="#2E8EF5" stroke-width="0.744502"/>
<path d="M1 84H301" stroke="#2E8EF5"/>
<line x1="0.82899" y1="83.1284" x2="151.18" y2="28.4052" stroke="#2E8EF5"/>
<path d="M54.8636 78L60.6591 43.0909H62.7898L57.3352 76.0227H74.3807L74.0398 78H54.8636ZM88 78.5625C86.4886 78.5625 85.1534 78.2614 83.9943 77.6591C82.8466 77.0568 81.9886 76.1761 81.4205 75.017C80.8523 73.858 80.6989 72.4489 80.9602 70.7898C81.1534 69.6989 81.5114 68.7386 82.0341 67.9091C82.5568 67.0795 83.2727 66.3636 84.1818 65.7614C85.0909 65.1591 86.2045 64.6648 87.5227 64.2784C88.8523 63.8807 90.4034 63.5739 92.1761 63.358C93.5398 63.1989 94.7557 63.0398 95.8239 62.8807C96.892 62.7216 97.7557 62.4773 98.4148 62.1477C99.0739 61.8182 99.4602 61.3239 99.5739 60.6648L99.7443 59.5739C100.063 57.6761 99.7386 56.1648 98.7727 55.0398C97.8068 53.9034 96.267 53.3352 94.1534 53.3352C92.2898 53.3352 90.6193 53.7557 89.142 54.5966C87.6648 55.4261 86.5625 56.4773 85.8352 57.75L84.0284 57.017C84.733 55.767 85.625 54.7273 86.7045 53.8977C87.7955 53.0682 88.9886 52.4489 90.2841 52.0398C91.5909 51.6307 92.9205 51.4261 94.2727 51.4261C95.4432 51.4261 96.5341 51.5909 97.5455 51.9205C98.5568 52.25 99.4205 52.75 100.136 53.4205C100.864 54.0909 101.381 54.9489 101.688 55.9943C102.006 57.0284 102.04 58.267 101.79 59.7102L98.7557 78H96.6761L97.4773 73.2784H97.3239C96.7102 74.2557 95.9375 75.1477 95.0057 75.9545C94.0852 76.75 93.0341 77.3864 91.8523 77.8636C90.6705 78.3295 89.3864 78.5625 88 78.5625ZM88.392 76.6364C90.0284 76.6364 91.5511 76.2386 92.9602 75.4432C94.3807 74.6364 95.5739 73.5341 96.5398 72.1364C97.517 70.7386 98.1477 69.1534 98.4318 67.3807L99.0966 63.5284C98.7898 63.7557 98.375 63.9602 97.8523 64.142C97.3295 64.3125 96.7443 64.4659 96.0966 64.6023C95.4602 64.7273 94.7955 64.8409 94.1023 64.9432C93.4205 65.0341 92.7557 65.1193 92.108 65.1989C90.1648 65.4261 88.5568 65.7784 87.2841 66.2557C86.0114 66.7216 85.0284 67.3352 84.3352 68.0966C83.6534 68.858 83.2159 69.7784 83.0227 70.858C82.7386 72.642 83.1023 74.0511 84.1136 75.0852C85.1364 76.1193 86.5625 76.6364 88.392 76.6364ZM106.588 78L106.912 76.2443L125.952 53.983L125.986 53.7955H111.463L111.804 51.8182H129.003L128.679 53.608L109.827 75.8352L109.793 76.0227H125.594L125.253 78H106.588ZM141.804 78.5455C139.44 78.5455 137.48 77.9602 135.923 76.7898C134.366 75.6193 133.281 74.017 132.668 71.983C132.054 69.9489 131.963 67.6307 132.395 65.0284C132.827 62.4148 133.69 60.0852 134.986 58.0398C136.281 55.9943 137.866 54.3807 139.741 53.1989C141.616 52.017 143.639 51.4261 145.81 51.4261C147.276 51.4261 148.611 51.7216 149.815 52.3125C151.031 52.9034 152.054 53.75 152.884 54.8523C153.713 55.9432 154.287 57.267 154.605 58.8239C154.923 60.3807 154.923 62.1307 154.605 64.0739L154.366 65.3693H133.639L133.963 63.4773H152.594C152.912 61.5909 152.821 59.8864 152.321 58.3636C151.821 56.8295 150.991 55.6136 149.832 54.7159C148.685 53.8182 147.276 53.3693 145.605 53.3693C143.901 53.3693 142.276 53.8636 140.73 54.8523C139.196 55.8295 137.878 57.1364 136.776 58.7727C135.685 60.4091 134.957 62.2102 134.594 64.1761L134.389 65.233C134.026 67.483 134.071 69.4659 134.526 71.1818C134.991 72.8864 135.855 74.2216 137.116 75.1875C138.378 76.142 140.026 76.6193 142.06 76.6193C143.48 76.6193 144.741 76.3807 145.844 75.9034C146.957 75.4148 147.901 74.8239 148.673 74.1307C149.457 73.4375 150.071 72.767 150.514 72.1193L152.236 72.8864C151.713 73.7614 150.963 74.6364 149.986 75.5114C149.009 76.375 147.832 77.0966 146.457 77.6761C145.082 78.2557 143.531 78.5455 141.804 78.5455ZM159.459 78L163.822 51.8182H165.851L165.169 55.9091H165.357C166.129 54.5682 167.266 53.4943 168.766 52.6875C170.266 51.8693 171.879 51.4602 173.607 51.4602C173.8 51.4602 173.982 51.4602 174.152 51.4602C174.322 51.4602 174.493 51.4659 174.663 51.4773L174.305 53.5739C174.169 53.5625 174.004 53.5455 173.811 53.5227C173.629 53.4886 173.402 53.4716 173.129 53.4716C171.675 53.4716 170.328 53.7841 169.089 54.4091C167.851 55.0341 166.817 55.8977 165.987 57C165.158 58.0909 164.629 59.3409 164.402 60.75L161.538 78H159.459ZM187.716 87.8182L193.716 51.8182H195.744L194.79 57.6648H195.045C195.636 56.5398 196.375 55.5057 197.261 54.5625C198.159 53.6193 199.21 52.8636 200.415 52.2955C201.631 51.7159 202.989 51.4261 204.489 51.4261C206.602 51.4261 208.347 52.0057 209.722 53.1648C211.097 54.3239 212.045 55.9205 212.568 57.9545C213.091 59.9886 213.136 62.3295 212.705 64.9773C212.261 67.6136 211.432 69.9545 210.216 72C209.011 74.0341 207.534 75.6364 205.784 76.8068C204.034 77.9659 202.114 78.5455 200.023 78.5455C198.534 78.5455 197.273 78.2614 196.239 77.6932C195.216 77.125 194.409 76.3693 193.818 75.4261C193.227 74.4716 192.818 73.4261 192.591 72.2898H192.386L189.795 87.8182H187.716ZM193.58 64.9602C193.216 67.1875 193.216 69.1818 193.58 70.9432C193.955 72.6932 194.682 74.0795 195.761 75.1023C196.852 76.1136 198.278 76.6193 200.04 76.6193C201.824 76.6193 203.443 76.108 204.898 75.0852C206.364 74.0511 207.591 72.6534 208.58 70.892C209.58 69.1307 210.261 67.1534 210.625 64.9602C210.989 62.767 210.989 60.7955 210.625 59.0455C210.261 57.2955 209.54 55.9148 208.46 54.9034C207.381 53.8807 205.938 53.3693 204.131 53.3693C202.358 53.3693 200.739 53.875 199.273 54.8864C197.807 55.8864 196.58 57.2614 195.591 59.0114C194.614 60.75 193.943 62.733 193.58 64.9602ZM227.462 78.5455C225.28 78.5455 223.433 77.9602 221.922 76.7898C220.422 75.608 219.354 73.983 218.717 71.9148C218.081 69.8466 217.984 67.483 218.428 64.8239C218.859 62.233 219.712 59.9318 220.984 57.9205C222.268 55.8977 223.837 54.3125 225.689 53.1648C227.541 52.0057 229.53 51.4261 231.655 51.4261C233.848 51.4261 235.695 52.0227 237.195 53.2159C238.706 54.3977 239.78 56.0284 240.416 58.108C241.053 60.1761 241.161 62.5341 240.74 65.1818C240.308 67.7614 239.445 70.0625 238.149 72.0852C236.865 74.0966 235.297 75.6761 233.445 76.8239C231.592 77.9716 229.598 78.5455 227.462 78.5455ZM227.496 76.6193C229.359 76.6193 231.075 76.0966 232.643 75.0511C234.212 74.0057 235.524 72.5909 236.581 70.8068C237.649 69.0227 238.359 67.0284 238.712 64.8239C239.064 62.6875 239.013 60.7557 238.558 59.0284C238.104 57.2898 237.291 55.9148 236.121 54.9034C234.95 53.8807 233.467 53.3693 231.672 53.3693C229.82 53.3693 228.104 53.8977 226.524 54.9545C224.956 56.0114 223.638 57.4318 222.57 59.2159C221.501 61 220.791 62.9886 220.439 65.1818C220.075 67.3068 220.121 69.2386 220.575 70.9773C221.041 72.7045 221.859 74.0795 223.03 75.1023C224.212 76.1136 225.7 76.6193 227.496 76.6193ZM245.858 78L250.222 51.8182H252.284L247.92 78H245.858ZM252.233 47.1648C251.744 47.1648 251.335 47 251.006 46.6705C250.688 46.3295 250.551 45.9148 250.597 45.4261C250.619 45.017 250.801 44.6591 251.142 44.3523C251.483 44.0455 251.875 43.892 252.318 43.892C252.807 43.892 253.21 44.0625 253.528 44.4034C253.847 44.733 253.989 45.1364 253.955 45.6136C253.92 46.0341 253.733 46.3977 253.392 46.7045C253.063 47.0114 252.676 47.1648 252.233 47.1648ZM261.523 61.0227L258.71 78H256.631L260.994 51.8182H263.023L262.341 55.9602H262.545C263.364 54.608 264.523 53.5227 266.023 52.7045C267.523 51.8864 269.205 51.4773 271.068 51.4773C272.818 51.4773 274.301 51.8523 275.517 52.6023C276.733 53.3523 277.602 54.4205 278.125 55.8068C278.648 57.1818 278.75 58.8239 278.432 60.733L275.551 78H273.472L276.335 60.8182C276.699 58.5909 276.347 56.8011 275.278 55.4489C274.222 54.0852 272.608 53.4034 270.438 53.4034C268.972 53.4034 267.608 53.7216 266.347 54.358C265.097 54.9943 264.045 55.8864 263.193 57.0341C262.341 58.1705 261.784 59.5 261.523 61.0227ZM297.812 51.8182L297.489 53.6761H286.068L286.375 51.8182H297.812ZM291.267 45.5455H293.33L289 71.8125C288.818 72.8807 288.875 73.7557 289.17 74.4375C289.477 75.108 289.938 75.608 290.551 75.9375C291.176 76.2557 291.886 76.4148 292.682 76.4148C293.034 76.4148 293.352 76.3864 293.636 76.3295C293.92 76.2614 294.205 76.1875 294.489 76.108L294.676 78C294.324 78.125 293.949 78.2273 293.551 78.3068C293.153 78.3864 292.693 78.4261 292.17 78.4261C291.08 78.4261 290.091 78.1818 289.205 77.6932C288.33 77.2045 287.665 76.4943 287.21 75.5625C286.767 74.6307 286.659 73.5057 286.886 72.1875L291.267 45.5455ZM311.023 78.5455C308.659 78.5455 306.699 77.9602 305.142 76.7898C303.585 75.6193 302.5 74.017 301.886 71.983C301.273 69.9489 301.182 67.6307 301.614 65.0284C302.045 62.4148 302.909 60.0852 304.205 58.0398C305.5 55.9943 307.085 54.3807 308.96 53.1989C310.835 52.017 312.858 51.4261 315.028 51.4261C316.494 51.4261 317.83 51.7216 319.034 52.3125C320.25 52.9034 321.273 53.75 322.102 54.8523C322.932 55.9432 323.506 57.267 323.824 58.8239C324.142 60.3807 324.142 62.1307 323.824 64.0739L323.585 65.3693H302.858L303.182 63.4773H321.812C322.131 61.5909 322.04 59.8864 321.54 58.3636C321.04 56.8295 320.21 55.6136 319.051 54.7159C317.903 53.8182 316.494 53.3693 314.824 53.3693C313.119 53.3693 311.494 53.8636 309.949 54.8523C308.415 55.8295 307.097 57.1364 305.994 58.7727C304.903 60.4091 304.176 62.2102 303.812 64.1761L303.608 65.233C303.244 67.483 303.29 69.4659 303.744 71.1818C304.21 72.8864 305.074 74.2216 306.335 75.1875C307.597 76.142 309.244 76.6193 311.278 76.6193C312.699 76.6193 313.96 76.3807 315.062 75.9034C316.176 75.4148 317.119 74.8239 317.892 74.1307C318.676 73.4375 319.29 72.767 319.733 72.1193L321.455 72.8864C320.932 73.7614 320.182 74.6364 319.205 75.5114C318.227 76.375 317.051 77.0966 315.676 77.6761C314.301 78.2557 312.75 78.5455 311.023 78.5455ZM328.678 78L333.041 51.8182H335.07L334.388 55.9091H334.575C335.348 54.5682 336.484 53.4943 337.984 52.6875C339.484 51.8693 341.098 51.4602 342.825 51.4602C343.018 51.4602 343.2 51.4602 343.371 51.4602C343.541 51.4602 343.712 51.4659 343.882 51.4773L343.524 53.5739C343.388 53.5625 343.223 53.5455 343.03 53.5227C342.848 53.4886 342.621 53.4716 342.348 53.4716C340.893 53.4716 339.547 53.7841 338.308 54.4091C337.07 55.0341 336.036 55.8977 335.206 57C334.376 58.0909 333.848 59.3409 333.621 60.75L330.757 78H328.678Z" fill="white"/>
</svg>
